/* XPM */
static char *_d1c86c5b3c94f8acba6f17fbf21e0f0EPB1P4CltNBzQvAU[] = {
/* columns rows colors chars-per-pixel */
"64 64 19 1 ",
"  c black",
". c #2E2952",
"X c gray38",
"o c gray46",
"O c #A62E2E",
"+ c #3F4C8A",
"@ c #027A9E",
"# c #626C99",
"$ c #1565C0",
"% c #1D9BC2",
"& c #00BCD4",
"* c #37C0E6",
"= c #4DD0E1",
"- c gray62",
"; c #889EB5",
": c #B0BEC5",
"> c #82B1FF",
", c #ECEFF1",
"< c white",
/* pixels */
"                                                                ",
"                                                                ",
"                                                                ",
"                                                                ",
"                                                                ",
"                                                                ",
"                                                                ",
"                                                                ",
"                                                                ",
"                                                                ",
"                                                                ",
"                                                                ",
"                                                                ",
"                                                                ",
"                                                                ",
"                                                                ",
"                     ......................                     ",
"                    .&&&&&.----------.&&&&&.                    ",
"                   .%=****.<<<<<<<<<<.****=%.                   ",
"                  .%=%%%%%.,,,,,,,,,,.%%%%%=%.                  ",
"                 .%=%%%%%%.,,,,,,,,,,.%%%%%%=%.                 ",
"                .@@*%%%..................%%%*$$.                ",
"                .@@*%%.<----------------<.%%*$>.                ",
"                .@@*%.<oooooooooooooooooo<.%*$>.                ",
"                .@@*%.-ooooo........ooooo-.%*$>.                ",
"                ......-ooooo.<:::::.ooooo-......                ",
"                .--<,.-ooooo.:....:.ooooo-.<,$>.                ",
"                .--,,.-ooo...-....-...ooo-.,,$>.                ",
"                .--,,.-oo.:<,,,,,,,,,:.oo-.,,$>.                ",
"                .--,,.-o.-<::::::::::,-.o-.,,$>.                ",
"                .--,,.-o.-,::::OO::::,-.o-.,,$>.                ",
"                .--,,.-o.-,::::OO::::,-.o-.,,>>.                ",
"                .#++,.-o.-,::OOOOOO::,-.o-.,++#.                ",
"                .#++,.-o.-,::OOOOOO::,-.o-.,++#.                ",
"                .#++,.-o.-,::::OO::::,-.o-.,++#.                ",
"                .;;,,.-o.-,::::OO::::,-.o-.,,$>.                ",
"                .--,,.-o.-,::::::::::,-.o-.,,$>.                ",
"                .--,,.-oo.------------.oo-.,,$>.                ",
"                ......-ooo............ooo-......                ",
"                .@@*%.-oooooooooooooooooo-.%*$>.                ",
"                .@@*%.XooooooooooooooooooX.%*$>.                ",
"                .@@*%%.XXXXXXXXXXXXXXXXXX.%%*$>.                ",
"                .@@*%%%..................%%%*$>.                ",
"                 .>$%%%%%%.%%%%%%%%%%.%%%%%%$>.                 ",
"                  .>$%%%%%.%%%%%%%%%%.%%%%%$>.                  ",
"                   .>$$$$$.$$$$$$$$$$.$$$$$>.                   ",
"                    .>>>>>.>>>>>>>>>>.>>>>>.                    ",
"                     ......................                     ",
"                                                                ",
"                                                                ",
"                                                                ",
"                                                                ",
"                                                                ",
"                                                                ",
"                                                                ",
"                                                                ",
"                                                                ",
"                                                                ",
"                                                                ",
"                                                                ",
"                                                                ",
"                                                                ",
"                                                                ",
"                                                                "
};
